<?xml version="1.0" encoding="UTF-8"?>
<svg id="Layer_1" data-name="Layer 1" xmlns="http://www.w3.org/2000/svg" viewBox="0 0 346.21 262.64">
  <defs>
    <style>
      .cls-1 {
        fill: #023452;
      }

      .cls-1, .cls-2 {
        fill-rule: evenodd;
        stroke-width: 0px;
      }

      .cls-2 {
        fill: #ef7d24;
      }
    </style>
  </defs>
  <path class="cls-1" d="M88.34,131.32c.58-1.31,1.07-2.73,1.66-4.47.69-1.95,1.24-3.95,1.65-5.98l5.95-26.85c.49-2.74.87-4.79.98-5.99.17-1.07.24-2.16.19-3.24v-1.22h13.45l-8.09,37.25c-.58,2.64-.97,4.67-1.17,6.09-.23,1.44-.33,2.9-.29,4.36l-14.33.05Z"/>
  <path class="cls-2" d="M277.05.02c-9.18,0-16.63,7.39-16.63,16.51,0,2.75.69,5.46,2.01,7.87-1.65.83-5.51,2.74-10.91,5.52-2.87-6.16-10.22-8.84-16.43-5.99-6.2,2.85-8.91,10.15-6.04,16.3.21.46.45.9.72,1.32-2.78,1.53-5.65,3.12-8.62,4.78-2.7-4.6-8.65-6.16-13.28-3.48-4.64,2.68-6.2,8.58-3.5,13.19-3.05,1.82-6.14,3.67-9.22,5.55-2.99-2.51-7.48-2.14-10.01.83-1.09,1.28-1.68,2.89-1.68,4.56,0,.61.09,1.22.24,1.81-11.83,7.47-23.17,15.68-33.95,24.59-11.24-24.94-27.8-52.31-50.87-74.59l-.07-.07c-2.7-2.64-4.89-1.48-1.83,1.82l.12.13c19.56,20.9,34.94,51.14,45.42,78.73-39.74,33.68-83.55,98.95-35.54,119.43,6.99,2.98,10.18-2.73,7.17-4.49-.54-.31-21.92-11.79-8.33-47.04h34.24c1.83,0,3.32-1.47,3.32-3.29s-1.48-3.29-3.32-3.29h-31.44c2.03-4.28,4.3-8.44,6.78-12.48h24.61c1.83-.1,3.24-1.65,3.14-3.47-.09-1.68-1.45-3.03-3.14-3.12h-20.39c2.54-3.77,5.39-7.72,8.6-11.86h11.74c1.83-.1,3.24-1.65,3.14-3.47-.09-1.68-1.45-3.03-3.14-3.12h-6.52c3.72-4.53,7.84-9.24,12.36-14.14l.12-.14c9.02,25.94,13.38,48.06,12.42,55.44-.23,2.64-1.81,4.97-4.18,6.19-1.68.79-2.38,3.1.26,3.88,8.4,2.46,13.59-5.83,14.52-12.48.93-6.65-3.66-31.26-15.8-60.53,10.56-10.24,21.85-19.72,33.78-28.35,1.07.63,2.29.96,3.54.97,3.92,0,7.11-3.16,7.11-7.05,0-.47-.05-.93-.15-1.39,3.18-2.19,6.34-4.32,9.46-6.39,1.71,1.37,3.85,2.11,6.05,2.11,5.33.04,9.69-4.21,9.73-9.5,0-.83-.1-1.66-.3-2.47,3.12-1.94,6.13-3.77,9.05-5.48,4.64,4.97,12.47,5.27,17.47.66,3.5-3.22,4.82-8.16,3.39-12.68,5.28-2.91,9.14-4.99,11.02-6.05,5.17,7.53,15.52,9.48,23.1,4.35,7.59-5.13,9.55-15.4,4.38-22.93-3.1-4.51-8.24-7.21-13.75-7.21v.02Z"/>
  <path class="cls-1" d="M48.67,94.06c.26-.79.4-1.61.41-2.44,0-.35-.08-.69-.2-1.02-.41-.6-1.44-.91-2.91-.91h-21.77c-1.11-.1-2.21.22-3.08.91-.89.94-1.41,2.17-1.44,3.45l-2.57,10.96h29l2.57-10.96ZM51.96,131.32H9.9c-4.22,0-7.09-.96-8.65-2.88-.88-1.35-1.32-2.93-1.24-4.54.03-1.75.27-3.49.72-5.18l5.25-22.54c1.13-4.57,2.77-7.82,5.03-9.74,2.26-1.93,5.56-2.88,9.88-2.88h31.08c4.42,0,7.29.91,8.74,2.88,1,1.35,1.47,3.01,1.35,4.67-.02,1.72-.26,3.42-.73,5.07l-3.39,14.93H15.66l-2.26,9.74c-.17.77-.28,1.55-.31,2.33,0,.51,0,.96.21,1.11.3.61,1.22.96,2.67.96h30.84c2.7.02,5.39-.25,8.02-.81l-2.88,6.86Z"/>
  <path class="cls-1" d="M62.08,131.32c.65-1.5,1.19-3.12,1.85-5.09.77-2.23,1.39-4.51,1.85-6.82l10.78-50.19c.65-3.13,1.09-5.44,1.3-6.82.21-1.38.22-3.01.22-5.1h15.03l-13.4,62.06c-.65,3.01-1.08,5.33-1.31,6.95-.26,1.64-.37,3.31-.32,4.97l-16.01.04Z"/>
  <path class="cls-1" d="M237.49,91.65c-1.57-.11-3.13-.2-4.93-.2h-6.99c-1.1-.07-2.2.21-3.12.81-.94.82-1.56,1.93-1.77,3.14l-5.84,25.48c-.88,3.04-1.37,6.18-1.46,9.34v1.11h-15.2c.62-1.52,1.25-2.94,1.67-4.36.41-1.42.99-3.36,1.68-6.09l6.26-26.84c.73-2.64,1.04-4.67,1.36-6.19.17-1.41.24-2.83.21-4.26h12.81l-.52,4.87c.7-1.49,1.82-2.76,3.23-3.65,1.69-.9,3.6-1.32,5.53-1.22h12.52l3.02,5.27c-.66.57-1.26,1.22-1.77,1.92-.73.91-1.24,1.32-1.56,1.32-1.88-.14-3.56-.34-5.11-.45Z"/>
  <path class="cls-1" d="M169.53,131.32c.64-1.31,1.17-2.73,1.81-4.47.76-1.95,1.37-3.95,1.82-5.98l6.54-26.85c.54-2.74.96-4.79,1.07-5.99.19-1.07.26-2.16.21-3.24v-1.22h14.8l-8.9,37.25c-.64,2.64-1.07,4.67-1.28,6.09-.27,1.44-.37,2.9-.32,4.36l-15.76.05Z"/>
  <path class="cls-1" d="M114.61,66.84c0,3.96-3.2,7.17-7.15,7.17-3.96,0-7.17-3.2-7.17-7.15,0-3.96,3.2-7.17,7.15-7.17h.02c3.95,0,7.15,3.2,7.15,7.15Z"/>
  <path class="cls-1" d="M153.54,217.7c2.75,0,3.02-.29,3.6-2.63l3.57-14.57c.72-2.98.73-3.48.19-4.71h6.24c-1.16,1.23-1.4,1.76-2.12,4.71l-3.3,13.42c-1.47,5.95-3.61,8.13-9.24,8.13h-13.12c-5.06,0-6.52-2.63-5.17-8.13l3.34-13.62c.62-2.51.54-3.49.3-4.51h11.49c-.98,1.34-1.65,2.88-1.96,4.51l-3.67,14.93c-.42,1.73.13,2.46,1.86,2.46h7.99Z"/>
  <path class="cls-1" d="M172.92,200.34h-.08l-4.13,17c-.72,2.97-.73,3.48-.18,4.72h-6.16c1.13-1.24,1.38-1.76,2.1-4.72l4.08-16.84c.72-2.97.73-3.48.18-4.71h13.73l5.2,21.38h.12l4.05-16.67c.72-2.97.73-3.48.18-4.71h6.16c-1.13,1.23-1.38,1.75-2.1,4.71l-5.23,21.52h-12.64l-5.28-21.68Z"/>
  <path class="cls-1" d="M195.79,222.05c1.04-1.34,1.75-2.88,2.08-4.52l4.51-17.24c.65-2.51.56-3.49.31-4.51h12.2c-1.04,1.34-1.75,2.88-2.08,4.51l-4.51,17.24c-.65,2.5-.56,3.48-.31,4.52h-12.2Z"/>
  <path class="cls-1" d="M241.16,195.79l-.51,5.42c-.94-.8-2.16-1.19-3.37-1.07h-4.42l-4.2,17.4c-.61,2.5-.53,3.48-.3,4.52h-11.31c.96-1.34,1.61-2.88,1.93-4.52l4.2-17.4h-4.42c-1.36-.05-2.7.33-3.85,1.07l2.1-5.42h24.16Z"/>
  <path class="cls-1" d="M256.56,217.7c1.55.03,3.1-.21,4.58-.69l-2.11,5.05h-22.66c.97-1.34,1.63-2.88,1.94-4.52l4.21-17.24c.6-2.51.52-3.49.29-4.51h22.21l-.43,5.04c-1.37-.51-2.83-.74-4.28-.69h-7.99l-1.51,6.15h6.99c1.55.02,3.1-.21,4.58-.69l-1.4,5.75c-1.36-.51-2.8-.74-4.24-.69h-6.99l-1.72,7.05h8.52Z"/>
  <path class="cls-1" d="M274.68,217.66h5.27c1.65,0,2-.37,2.45-2.13l3.34-13.3c.44-1.77.29-2.13-1.37-2.13h-5.26l-4.42,17.56ZM268.94,200.3c.63-2.51.54-3.49.3-4.51h20.62c5.64,0,7.09,2.13,5.75,7.46l-2.85,11.33c-1.33,5.33-3.87,7.47-9.51,7.47h-20.61c1-1.34,1.68-2.88,2.01-4.52l4.29-17.24Z"/>
  <path class="cls-1" d="M159.17,257.24c.57,1.89,1.38,3.69,2.39,5.37h-11.86l-2.99-11.11-2.92,2.67-.96,3.97c-.6,2.5-.53,3.49-.3,4.51h-11.21c.95-1.34,1.6-2.88,1.91-4.51l4.13-17.22c.48-1.45.58-3.01.3-4.51h11.22c-.95,1.34-1.6,2.88-1.91,4.51l-1.72,7.23,8.5-7.93c1.42-1.32,1.82-1.98,2.03-2.84.07-.33.12-.66.15-.99h8.82c-1.43.65-2.76,1.53-3.95,2.59l-5.9,5.17,4.26,13.11Z"/>
  <path class="cls-1" d="M164.75,262.64c.9-1.34,1.53-2.88,1.82-4.52l3.93-17.24c.57-2.5.49-3.49.27-4.51h10.69c-.9,1.34-1.53,2.88-1.82,4.51l-3.93,17.24c-.57,2.5-.5,3.49-.28,4.52h-10.68Z"/>
  <path class="cls-1" d="M189.63,240.91h-.09l-4.13,16.99c-.72,2.97-.73,3.49-.18,4.72h-6.16c1.14-1.23,1.39-1.76,2.11-4.72l4.08-16.81c.72-2.97.73-3.49.18-4.72h13.72l5.2,21.41h.12l4.06-16.67c.72-2.97.73-3.49.18-4.72h6.16c-1.14,1.23-1.39,1.76-2.11,4.72l-5.2,21.53h-12.67l-5.28-21.73Z"/>
  <path class="cls-1" d="M243.54,246.89c-1.17,1.09-1.96,2.53-2.25,4.1l-1.62,6.49c-.8,3.24-.77,3.77-.22,5.17h-8.82l.27-2.42h-.08c-.83,1.52-1.42,2.42-4.26,2.42h-8.86c-4.27,0-6.14-2.05-4.73-7.72l2.7-10.83c1.41-5.67,4.31-7.72,8.58-7.72h19.2l-.48,5.05c-1.21-.52-2.53-.76-3.85-.7h-10.63c-1.31,0-2.07.42-2.38,1.69l-3.54,14.2c-.32,1.27.24,1.69,1.56,1.69h3.36c1.31,0,2.07-.42,2.39-1.69l1.33-5.38h-3.73c-.63.02-1.25.19-1.81.5l1.24-4.84h16.63Z"/>
  <path class="cls-1" d="M253.19,258.3h5.26c1.66,0,2.01-.38,2.45-2.14l3.35-13.3c.44-1.76.28-2.13-1.37-2.13h-5.26l-4.42,17.57ZM247.45,240.89c.62-2.5.54-3.49.3-4.51h20.62c5.64,0,7.09,2.13,5.75,7.47l-2.88,11.32c-1.34,5.34-3.87,7.47-9.51,7.47h-20.58c1-1.34,1.69-2.88,2.01-4.52l4.29-17.24Z"/>
  <path class="cls-1" d="M284.36,256.61c-.31,1.27.23,1.69,1.5,1.69h4.23c1.27,0,2.01-.42,2.31-1.69l3.43-14.2c.31-1.27-.23-1.69-1.5-1.69h-4.22c-1.28,0-2.02.42-2.32,1.69l-3.43,14.2ZM277.66,244.1c1.37-5.67,4.18-7.72,8.32-7.72h14.6c4.15,0,5.96,2.05,4.59,7.72l-2.61,10.83c-1.37,5.67-4.19,7.72-8.33,7.72h-14.6c-4.15,0-5.96-2.05-4.59-7.72l2.62-10.83Z"/>
  <path class="cls-1" d="M333.15,236.4h13.06c-.98,1.33-1.64,2.87-1.93,4.51l-4.17,17.22c-.61,2.5-.52,3.49-.25,4.51h-11.39c.96-1.34,1.62-2.88,1.93-4.51l3.91-16.16h-.08l-12.13,20.67h-6.75l-1.85-20.67h-.08l-3.86,15.93c-.71,2.97-.72,3.49-.18,4.72h-6.14c1.14-1.23,1.39-1.76,2.1-4.72l4.07-16.81c.71-2.97.72-3.49.18-4.72h13.47l1.26,14.87h.09l8.74-14.85Z"/>
</svg>